G04 #@! TF.FileFunction,Legend,Top*
%FSLAX46Y46*%
G04 Gerber Fmt 4.6, Leading zero omitted, Abs format (unit mm)*
G04 Created by KiCad (PCBNEW 4.0.5) date 02/09/17 16:17:32*
%MOMM*%
%LPD*%
G01*
G04 APERTURE LIST*
%ADD10C,0.100000*%
%ADD11C,0.125000*%
%ADD12C,0.120000*%
%ADD13C,0.150000*%
G04 APERTURE END LIST*
D10*
D11*
X125309524Y-102035714D02*
X125690476Y-102035714D01*
X125309524Y-104035714D02*
X125690476Y-104035714D01*
X125500000Y-104226190D02*
X125500000Y-103845238D01*
D12*
X137200000Y-105550000D02*
X138100000Y-105550000D01*
X140800000Y-105550000D02*
X140800000Y-100650000D01*
X137200000Y-100650000D02*
X137200000Y-105550000D01*
X132200000Y-105550000D02*
X133100000Y-105550000D01*
X135800000Y-105550000D02*
X135800000Y-100650000D01*
X132200000Y-100650000D02*
X132200000Y-105550000D01*
D13*
X130975000Y-101050000D02*
X130975000Y-104950000D01*
X128025000Y-104950000D02*
X128025000Y-101050000D01*
X138261905Y-103452381D02*
X138261905Y-102452381D01*
X138500000Y-102452381D01*
X138642858Y-102500000D01*
X138738096Y-102595238D01*
X138785715Y-102690476D01*
X138833334Y-102880952D01*
X138833334Y-103023810D01*
X138785715Y-103214286D01*
X138738096Y-103309524D01*
X138642858Y-103404762D01*
X138500000Y-103452381D01*
X138261905Y-103452381D01*
X139785715Y-103452381D02*
X139214286Y-103452381D01*
X139500000Y-103452381D02*
X139500000Y-102452381D01*
X139404762Y-102595238D01*
X139309524Y-102690476D01*
X139214286Y-102738095D01*
X133261905Y-103452381D02*
X133261905Y-102452381D01*
X133500000Y-102452381D01*
X133642858Y-102500000D01*
X133738096Y-102595238D01*
X133785715Y-102690476D01*
X133833334Y-102880952D01*
X133833334Y-103023810D01*
X133785715Y-103214286D01*
X133738096Y-103309524D01*
X133642858Y-103404762D01*
X133500000Y-103452381D01*
X133261905Y-103452381D01*
X134214286Y-102547619D02*
X134261905Y-102500000D01*
X134357143Y-102452381D01*
X134595239Y-102452381D01*
X134690477Y-102500000D01*
X134738096Y-102547619D01*
X134785715Y-102642857D01*
X134785715Y-102738095D01*
X134738096Y-102880952D01*
X134166667Y-103452381D01*
X134785715Y-103452381D01*
X129952381Y-103166666D02*
X129476190Y-103500000D01*
X129952381Y-103738095D02*
X128952381Y-103738095D01*
X128952381Y-103357142D01*
X129000000Y-103261904D01*
X129047619Y-103214285D01*
X129142857Y-103166666D01*
X129285714Y-103166666D01*
X129380952Y-103214285D01*
X129428571Y-103261904D01*
X129476190Y-103357142D01*
X129476190Y-103738095D01*
X129952381Y-102214285D02*
X129952381Y-102785714D01*
X129952381Y-102500000D02*
X128952381Y-102500000D01*
X129095238Y-102595238D01*
X129190476Y-102690476D01*
X129238095Y-102785714D01*
M02*
