G04 #@! TF.FileFunction,Copper,L1,Top,Signal*
%FSLAX46Y46*%
G04 Gerber Fmt 4.6, Leading zero omitted, Abs format (unit mm)*
G04 Created by KiCad (PCBNEW 4.0.5) date 02/09/17 16:17:32*
%MOMM*%
%LPD*%
G01*
G04 APERTURE LIST*
%ADD10C,0.100000*%
%ADD11R,0.700000X1.300000*%
%ADD12R,2.500000X1.000000*%
%ADD13C,1.998980*%
%ADD14C,1.500000*%
G04 APERTURE END LIST*
D10*
D11*
X137900000Y-104550000D03*
X139000000Y-104550000D03*
X140100000Y-104550000D03*
X140100000Y-101450000D03*
X139000000Y-101450000D03*
X137900000Y-101450000D03*
X132900000Y-104550000D03*
X134000000Y-104550000D03*
X135100000Y-104550000D03*
X135100000Y-101450000D03*
X134000000Y-101450000D03*
X132900000Y-101450000D03*
D12*
X129500000Y-105450000D03*
X129500000Y-100550000D03*
D13*
X126500000Y-104905000D03*
X126500000Y-101095000D03*
D14*
X132900000Y-104550000D02*
X132450000Y-104550000D01*
X131550000Y-105450000D02*
X129500000Y-105450000D01*
X132450000Y-104550000D02*
X131550000Y-105450000D01*
X134000000Y-104550000D02*
X132900000Y-104550000D01*
X135100000Y-104550000D02*
X134000000Y-104550000D01*
X137900000Y-104550000D02*
X135100000Y-104550000D01*
X139000000Y-104550000D02*
X137900000Y-104550000D01*
X140100000Y-104550000D02*
X139000000Y-104550000D01*
X139000000Y-101450000D02*
X140100000Y-101450000D01*
X137900000Y-101450000D02*
X139000000Y-101450000D01*
X135100000Y-101450000D02*
X137900000Y-101450000D01*
X134000000Y-101450000D02*
X135100000Y-101450000D01*
X132900000Y-101450000D02*
X134000000Y-101450000D01*
X132900000Y-101450000D02*
X132050000Y-101450000D01*
X130000000Y-103500000D02*
X131500000Y-102000000D01*
X127000000Y-103500000D02*
X130000000Y-103500000D01*
X127000000Y-103500000D02*
X126500000Y-104000000D01*
X132050000Y-101450000D02*
X131500000Y-102000000D01*
X126500000Y-104905000D02*
X126500000Y-104000000D01*
X126500000Y-101095000D02*
X128955000Y-101095000D01*
X128955000Y-101095000D02*
X129500000Y-100550000D01*
M02*
